/* XPM */
static char *e7822619f86c44878bc84ab7fc161d67[] = {
/* columns rows colors chars-per-pixel */
"64 64 129 2 ",
"   c None",
".  c #D8AE54",
"X  c #D8AF54",
"o  c #D9AF54",
"O  c #DAAF54",
"+  c #D9B054",
"@  c #D9B055",
"#  c #DAB054",
"$  c #DBB054",
"%  c #DAB154",
"&  c #DAB055",
"*  c #DBB055",
"=  c #DBB157",
"-  c #DCB155",
";  c #DCB255",
":  c #DCB256",
">  c #DDB256",
",  c #DDB356",
"<  c #DEB256",
"1  c #DEB356",
"2  c #DAB25A",
"3  c #DCB258",
"4  c #DDB45A",
"5  c #DCB35C",
"6  c #DBB45D",
"7  c #DDB45C",
"8  c #DDB55C",
"9  c #DEB65D",
"0  c #DCB45F",
"q  c #DEB65E",
"w  c #DFB65F",
"e  c #E0B556",
"r  c #E0B557",
"t  c #E1B657",
"y  c #E0B559",
"u  c #E3B658",
"i  c #E2B759",
"p  c #E6B959",
"a  c #E9BB5A",
"s  c #E9BD5A",
"d  c #DBB560",
"f  c #DEB765",
"g  c #DDB766",
"h  c #DCB867",
"j  c #DEB967",
"k  c #DCB868",
"l  c #DFBC6B",
"z  c #DEB96C",
"x  c #E3B961",
"c  c #E2BA61",
"v  c #E0B964",
"b  c #E1BB69",
"n  c #E1BC6B",
"m  c #E6BF6A",
"M  c #E1BD6F",
"N  c #E4BD6C",
"B  c #E0BD73",
"V  c #E0BE73",
"C  c #E3BF73",
"Z  c #E0BE75",
"A  c #E1BF75",
"S  c #E5C16E",
"D  c #E4C173",
"F  c #E6C275",
"G  c #E5C276",
"H  c #E4C277",
"J  c #E0C079",
"K  c #E3C178",
"L  c #E2C079",
"P  c #E1C07A",
"I  c #E5C279",
"U  c #E1C27C",
"Y  c #E3C582",
"T  c #ECCA81",
"R  c #E4C789",
"E  c #E7C888",
"W  c #E5C88B",
"Q  c #E5C98C",
"!  c #E6CA8C",
"~  c #E6CA8D",
"^  c #E8CA8C",
"/  c #E7CB93",
"(  c #E6CF97",
")  c #E8D19A",
"_  c #EAD19D",
"`  c #EAD2A0",
"'  c #ECD4A0",
"]  c #EBD6A8",
"[  c #ECD8AE",
"{  c #EDDAB1",
"}  c #EDDBB3",
"|  c #EDDCB5",
" . c #EFDDB7",
".. c #EEDDB8",
"X. c #EFDEB8",
"o. c #EFDFBC",
"O. c #F0DFBC",
"+. c #F1E0BD",
"@. c #F0E0BF",
"#. c #F0E2C0",
"$. c #F1E2C1",
"%. c #F2E3C4",
"&. c #F2E4C6",
"*. c #F3E6C8",
"=. c #F3E7CC",
"-. c #F4E9D2",
";. c #F6ECD6",
":. c #F7EDD9",
">. c #F7EEDA",
",. c #F7EEDB",
"<. c #F7EFDD",
"1. c #FAF5E9",
"2. c #FBF5E9",
"3. c #FAF5EA",
"4. c #FBF5EB",
"5. c #FBF6EC",
"6. c #FBF6ED",
"7. c #FBF7EE",
"8. c #FBF7EF",
"9. c #FCF8F1",
"0. c #FDFBF6",
"q. c #FDFBF8",
"w. c #FEFCF8",
"e. c #FEFCF9",
"r. c #FEFDFA",
"t. c #FFFEFD",
"y. c #FFFEFE",
"u. c #FFFFFE",
"i. c white",
/* pixels */
"                                                                                                                                ",
"                                                    t o o o o o o o o o o o A                                                   ",
"                                            I o o o o o o o o o o o o o o o o o o o                                             ",
"                                        o o o o o o o o o o o o o o o o o o o o o o o o -                                       ",
"                                    o o o o o o o o o o o o o o o # o o o o o o o o o o o o 3                                   ",
"                                o o o o o o o o o o o o o o y h g s - o o o o o o o o o o o o o O.                              ",
"                              o o o o o o o # o o X.i.i.i.i.i.i.i.i.i.i.i.i.i.7 o o o o o o o o o o                             ",
"                          6 o o o o o o o o Q i.i.i.i.i.i.i.i.i.i.i.i.i.i.i.i.i.i.i.# o o o o o o o o                           ",
"                        # o o o o o o o =.i.i.i.i.i.i.i.i.i.i.i.i.i.i.i.i.i.i.i.i.i.i.i.- # o o o o o o                         ",
"                      o o o o o o o - i.i.i.i.i.i.i.i.i.i.i.i.i.i.i.i.i.i.i.i.i.i.i.i.i.i.i.o o o o o o o (                     ",
"                    o o o o o o o i.i.i.i.i.i.i.i.i.i.9.7 # o o o o o # K i.i.i.i.i.i.i.i.i.i.j o o o o o o }                   ",
"                  # o o o o o o i.i.i.i.i.i.i.i.@.o o o o # o o o o o o o o o o i.i.i.i.i.i.i.i.i.o o o o o o                   ",
"                K o o o o o o i.i.i.i.i.i.i.n o o o o o o o o o o o o o o o o o o o i.i.i.i.i.i.i.i.o o o o o o                 ",
"                o o o o o o i.i.i.i.i.i.e.o o o o o o o o o o o o o o o o o o o o o o o i.i.i.i.i.i.i.o o o o o o               ",
"              o o o o o o i.i.i.i.i.i.- + o o o o o o o o o o o o o o o o o o o o o o o o q.i.i.i.i.i.i.o o o o o -             ",
"            t o o o o o i.i.i.i.i.i.o o o o o o o o o o o o o o o o o o o o o o o o o o o o Y i.i.i.i.i.>.o o o o #             ",
"            o o o o o i.i.i.i.i.i.o o o o o o o o o o o o o o o o o o o o o o o o o o o o o o b i.i.i.i.i.- o o o o o           ",
"          o o o o o # i.i.i.i.i.o o o o o o o o o o o o o o o o o o o o o o o o o o o o o o o o ) i.i.i.i.i.o o o o o           ",
"          o o o o o i.i.i.i.i.# o o o o o o o o o o o o o o o o o o o o o o o o o o o o o o o o o i.i.i.i.i.6.o o o o o         ",
"        # o o o o } i.i.i.i.6.o o o o o o o o o o o o o o o o o o o o o o o o o o o o o o o o o o o i.i.i.i.i.o o o o o         ",
"        o o o o . i.i.i.i.i.o o o o o o o o o o o o F -. .y o o o o o D -. .y o o o o o o o o o o o o i.i.i.i.i.o o o o #       ",
"      Q o o o o K i.i.i.i.y o o o o o o o o o o i.i.i.i.i.i.i.;.o i.i.i.i.i.i.i.6.o o o o o o o o o o i.i.i.i.i.o o o o o       ",
"      o o o o o i.i.i.i.i.o o o o o o o o o - i.i.i.i.i.i.i.i.i.i.i.i.i.i.i.i.i.i.i.o o o o o o o o o o i.i.i.i.Q o o o o       ",
"      o o o o o i.i.i.i.c o o o o o o o o o i.i.i.i.i.i.i.i.i.i.i.i.i.i.i.i.i.i.i.i.i.o o o o o o o o o i.i.i.i.i.o o o o #     ",
"      o o o o @.i.i.i.i.o o o o o o o o o i.i.i.i.i.i.i.i.i.i.i.i.i.i.i.i.i.i.i.i.i.i.U o o o o o o o o d i.i.i.i.o o o o o     ",
"    6 o o o o i.i.i.i.i.o o o o o o o o # i.i.i.i.i.i.i.i.i.i.i.i.i.i.i.i.i.i.i.i.i.i.i.o o o o o o o o o i.i.i.i.- o o o o     ",
"    o o o o o i.i.i.i.M o o o o o o o o >.i.i.i.i.i.i.>.i.i.i.i.i.i.i.i.<.i.i.i.i.i.i.i.o o o o o o o o o i.i.i.i.i.o o o o     ",
"    o o o o o i.i.i.i.o o o o o o o o o i.i.i.i.i.i.7 o o i.i.i.i.i.i.3 o o i.i.i.i.i.i.# o o o o o o o o 1.i.i.i.i.o o o o T   ",
"    o o o o # i.i.i.i.o o o o o o o o o i.i.i.i.i.i.o o o i.i.i.i.i.i.# o o i.i.i.i.i.i.- o o o o o o o o v i.i.i.i.o o o o t   ",
"    o o o o k i.i.i.i.o o o o o o o o o i.i.i.i.i.i.o o o i.i.i.i.i.i.# o o i.i.i.i.i.i.- o o o o o o o o o i.i.i.i.o o o o o   ",
"    o o o o ` i.i.i.i.o o o o o o o o o i.i.i.i.i.i.o o o i.i.i.i.i.i.# o o i.i.i.i.i.i.- o o o o o o o o o i.i.i.i.o o o o o   ",
"    o o o o 1.i.i.i.i.o o o o o o o o o i.i.i.i.i.i.o o o i.i.i.i.i.i.# o o i.i.i.i.i.i.- o o o o o o o o o i.i.i.i.o o o o o   ",
"    o o o o &.i.i.i.i.o o o o o o o o o i.i.i.i.i.i.o o o i.i.i.i.i.i.# o o i.i.i.i.i.i.- o o o o o o o o o i.i.i.i.o o o o o   ",
"    o o o o Q i.i.i.i.o o o o o o o o o i.i.i.i.i.i.o o o i.i.i.i.i.i.# o o i.i.i.i.i.i.- o o o o o o o o o i.i.i.i.o o o o o   ",
"    o o o o 2 i.i.i.i.o o o o o o o o o i.i.i.i.i.i.o o o i.i.i.i.i.i.# o o i.i.i.i.i.i.- o o o o o o o o o i.i.i.i.o o o o o   ",
"    o o o o o i.i.i.i.o o o o o o o o o i.i.i.i.i.i.o o o i.i.i.i.i.i.# o o i.i.i.i.i.i.- o o o o o o o o M i.i.i.i.o o o o p   ",
"    o o o o o i.i.i.i.o o o o o o o o o i.i.i.i.i.i.o o o i.i.i.i.i.i.# o o i.i.i.i.i.i.- o o o o o o o o q.i.i.i.i.o o o o ]   ",
"    o o o o o i.i.i.i.E o o o o o o o o i.i.i.i.i.i.o o o i.i.i.i.i.i.# o o i.i.i.i.i.i.- o o o o o o o o i.i.i.i.1.o o o o     ",
"    ' o o o o i.i.i.i.i.o o o o o o o o i.i.i.i.i.i.o o o i.i.i.i.i.i.# o o i.i.i.i.i.i.- o o o o o o o o i.i.i.i.- o o o o     ",
"      o o o o m i.i.i.i.o o o o o o o o i.i.i.i.i.i.o o o i.i.i.i.i.i.# o o i.i.i.i.i.i.- o o o o o o o A i.i.i.i.# o o o o     ",
"      o o o o o i.i.i.i.R o o o o o o o i.i.i.i.i.i.o o o i.i.i.i.i.i.# o o i.i.i.i.i.i.- o o o o o o o i.i.i.i.i.o o o o -     ",
"      # o o o o i.i.i.i.i.o o o o o o o i.i.i.i.i.i.o o o i.i.i.i.i.i.# o o i.i.i.i.i.i.- o o o o o o o i.i.i.i.# o o o o       ",
"        o o o o # i.i.i.i.b o o o o o o i.i.i.i.i.i.o o o i.i.i.i.i.i.# o o i.i.i.i.i.i.- o o o o o o i.i.i.i.i.o o o o o       ",
"        o o o o o i.i.i.i.i.o o o o o o i.i.i.i.i.i.o o o i.i.i.i.i.i.# o o i.i.i.i.i.i.- o o o o o # i.i.i.i.Q o o o o c       ",
"        S o o o o - i.i.i.i.i.# o o o o i.i.i.i.i.i.o o o i.i.i.i.i.i.# o o i.i.i.i.i.i.- o o o o o i.i.i.i.i.o o o o o         ",
"          o o o o o i.i.i.i.i.7 o o o o i.i.i.i.i.i.o o o i.i.i.i.i.i.# o o i.i.i.i.i.i.- o o o o i.i.i.i.i.# # o o o #         ",
"          7 o o o o o i.i.i.i.i.o o o o i.i.i.i.i.i.o o o i.i.i.i.i.i.# o o i.i.i.i.i.i.- o o o 6.i.i.i.i.i.o o o o #           ",
"            o o o o o V i.i.i.i.i.o o o i.i.i.i.i.i.o o o i.i.i.i.i.i.# o o i.i.i.i.i.i.- o o $.i.i.i.i.i.o o o o o -           ",
"              o o o o o i.i.i.i.i.i.o o i.i.i.i.i.i.o o o i.i.i.i.i.i.# o o i.i.i.i.i.i.- o 1.i.i.i.i.i.o o o o o o             ",
"              # o o o o o i.i.i.i.i.i.V i.i.i.i.i.i.o o o i.i.i.i.i.i.# o o i.i.i.i.i.i.- i.i.i.i.i.i.z o o o o o               ",
"                o o o o o o i.i.i.i.i.i.i.i.i.i.i.i.o o o i.i.i.i.i.i.# o o i.i.i.i.i.i.i.i.i.i.i.i._ o o o o o -               ",
"                  o o o o o o i.i.i.i.i.i.i.i.i.i.i.o o o i.i.i.i.i.i.# o o i.i.i.i.i.i.i.i.i.i.i.H o o o o o o                 ",
"                    o o o o o o 0.i.i.i.i.i.i.i.i.i.o o o i.i.i.i.i.i.# o o i.i.i.i.i.i.i.i.i.i.# o o o o o o                   ",
"                    K o o o o o # - i.i.i.i.i.i.i.i.i.i.[ i.i.i.i.i.i.7 1.i.i.i.i.i.i.i.i.i.i.o o o o o o o                     ",
"                      ^ o o o o o o o i.i.i.i.i.i.i.i.i.i.i.i.i.i.i.i.i.i.i.i.i.i.i.i.i.i.g o o o o o o o                       ",
"                          o o o o o o o o i.i.i.i.i.i.i.i.i.i.i.i.i.i.i.i.i.i.i.i.i.i.O.o o o o o o o o                         ",
"                            o o o o o o o o o *.i.i.i.i.i.i.i.i.i.i.i.i.i.i.i.i.i.4 o o o o o o o o o                           ",
"                              # o o o o o o o o o o F i.i.i.i.i.i.i.i.i.i.e.p o o o o o o o o o o $.                            ",
"                                  o o o o o o o o o o o o o o o o o o o o o o o o o o o o o o o                                 ",
"                                    / o o o o o o o o o o o o o o o o o o o o o o o o o o o                                     ",
"                                        %.o o o o o o o o o o o o o o o o o o o o o o o                                         ",
"                                              V o o o o o o o o o o o o o o o o #                                               ",
"                                                      o.a o o o o o o # n                                                       ",
"                                                                                                                                "
};
