/* XPM */
static char *_748cf67a2b040b8d9b565849da2922a[] = {
/* columns rows colors chars-per-pixel */
"32 32 39 1 ",
"  c None",
". c #D9AF54",
"X c #DAAF54",
"o c #DAB054",
"O c #DAB055",
"+ c #DBB055",
"@ c #DBB155",
"# c #DCB155",
"$ c #DDB255",
"% c #DCB256",
"& c #DEB357",
"* c #DEB45B",
"= c #DCB55E",
"- c #DEB765",
"; c #E2B960",
": c #E0B967",
"> c #E3C37D",
", c #E4C684",
"< c #E8CD91",
"1 c #E9D19B",
"2 c #EAD09D",
"3 c #EBD6A6",
"4 c #EAD6A9",
"5 c #EEDCB6",
"6 c #EFDDB6",
"7 c #EFDEB8",
"8 c #F0DEB7",
"9 c #F0DDB8",
"0 c #F4E8CE",
"q c #F4EAD1",
"w c #F6E9D2",
"e c #F7EFDD",
"r c #FAF5EB",
"t c #FBF6EC",
"y c #FBF6ED",
"u c #FCF9F2",
"i c #FDFBF8",
"p c #FEFDFA",
"a c white",
/* pixels */
"              1oo;              ",
"          4.....o.....          ",
"        3...............        ",
"       .....aaaaaaaa=....       ",
"      ....aaaaaaaaaaaae...5     ",
"     ...aaaaa......paaaa...     ",
"    ...aaaa..........-aaa...    ",
"   ...aaa..............aaa...   ",
"   ..7aa................aaa..o  ",
"  ...aa:.................aa$..  ",
"  ..aaa.....8aa$.aaa.....5aa..  ",
" w..aa.....aaaaaaaaaa.....aa... ",
" ...aa....yaaaaaaaaaaa....aaa.. ",
" ..iaa....aaa.yaaa.aaa.....aa.. ",
" ..aa>....aaa..aaa.aaa.....aa.. ",
" ..aao....aaa..aaa.aaa.....aa.. ",
" ..aao....aaa..aaa.aaa.....aa.. ",
" ..aa<....aaa..aaa.aaa.....aa.. ",
" ..0aa....aaa..aaa.aaa.....aa.. ",
" ...aa....aaa..aaa.aaa....aaa.. ",
"  ..aa....aaa..aaa.aaa....aa... ",
"  ..uaa...aaa..aaa.aaa...raa..  ",
"  ...aa9..aaa..aaa.aaa...aa...  ",
"   ...aa..aaa..aaa.aaa..aaa..   ",
"   *..aaa$aaa..aaa.aaa.aaa...   ",
"    ...aaaaaa..aaa.aaaaaa...    ",
"     ...2aaaaooaaa.aaaaa...     ",
"      ....aaaaaaaaaaaa....      ",
"       .....waaaaaaa.....       ",
"         ...o..........,        ",
"           ..........           ",
"                                "
};
