<svg width="841.9" height="841.9" xmlns="http://www.w3.org/2000/svg">

 <g>
  <title>background</title>
  <rect fill="none" id="canvas_background" height="402" width="582" y="-1" x="-1"/>
 </g>
 <g>
  <title>Layer 1</title>
  <polygon fill="#ffff56" id="svg_3" points="593.2000122070312,581.5999755859375 662,400.8999938964844 606.2999877929688,233.39999389648438 425.6000061035156,164.60000610351562 425.6000061035156,400.8999938964844 425.6000061035156,637.2999877929688 "/>
  <g id="svg_1">
   <path fill="#ff0000" id="svg_2" d="m425.6,657.3c-68.5,0 -132.9,-26.7 -181.3,-75.1s-75,-112.8 -75,-181.3s26.7,-132.9 75.1,-181.3c48.4,-48.4 112.8,-75.1 181.3,-75.1s132.9,26.7 181.3,75.1c48.4,48.4 75.1,112.8 75.1,181.3s-26.7,132.9 -75.1,181.3s-112.9,75.1 -181.4,75.1zm0,-472.7c-57.8,0 -112.1,22.5 -153,63.4c-40.9,40.9 -63.4,95.2 -63.4,153c0,57.8 22.5,112.1 63.4,153c40.9,40.9 95.2,63.4 153,63.4c57.8,0 112.1,-22.5 153,-63.4c40.9,-40.9 63.4,-95.2 63.4,-153c0,-57.8 -22.5,-112.1 -63.4,-153c-40.8,-40.9 -95.2,-63.4 -153,-63.4z"/>
  </g>
 </g>
</svg>