<svg width="841.9" height="841.9" xmlns="http://www.w3.org/2000/svg">

 <g>
  <title>background</title>
  <rect fill="none" id="canvas_background" height="843.9" width="843.9" y="-1" x="-1"/>
 </g>
 <g>
  <title>Layer 1</title>
  <path fill="#00ff00" id="polygon7" d="m596.2,623.6l68.8,-180.7l-55.7,-167.5l-180.7,-68.8c0,0 0,78.8 0,118.2c0,117.7 0.4,118.1 -118.1,118.1c-39.4,0 -118.2,0 -118.2,0l55.7,167.6l180.6,68.8l167.6,-55.7z"/>
  <g id="svg_1">
   <path fill="#aaff56" id="svg_2" d="m426.6,700.3c-68.5,0 -132.9,-26.7 -181.3,-75.1s-75,-112.8 -75,-181.3s26.7,-132.9 75.1,-181.3c48.4,-48.4 112.8,-75.1 181.3,-75.1s132.9,26.7 181.3,75.1c48.4,48.4 75.1,112.8 75.1,181.3s-26.7,132.9 -75.1,181.3s-112.9,75.1 -181.4,75.1zm0,-472.7c-57.8,0 -112.1,22.5 -153,63.4c-40.9,40.9 -63.4,95.2 -63.4,153c0,57.8 22.5,112.1 63.4,153c40.9,40.9 95.2,63.4 153,63.4c57.8,0 112.1,-22.5 153,-63.4c40.9,-40.9 63.4,-95.2 63.4,-153c0,-57.8 -22.5,-112.1 -63.4,-153c-40.8,-40.9 -95.2,-63.4 -153,-63.4z"/>
  </g>
 </g>
</svg>